<svg width="199" height="119" viewBox="0 0 199 119" fill="none" xmlns="http://www.w3.org/2000/svg">
<g clip-path="url(#clip0_176_38)" filter="url(#filter0_d_176_38)">
<path d="M106.773 41.2578C108.108 48.9756 99.9124 46.9199 99.9124 46.9199C96.4823 37.2546 90.9941 38.1563 90.9941 38.1563C95.2908 41.2939 95.6157 43.9626 95.6157 43.9626C84.1701 35.8481 68.6083 42.3758 62.6869 45.4413C59.3651 40.7529 52.6494 30.2581 55.0324 25.4976C58.1736 19.2585 64.5644 22.8289 64.5644 22.8289C77.4904 22.6125 76.7683 17.9962 76.7683 17.9962C73.3382 20.665 63.2285 17.9962 63.2285 17.9962C72.0023 17.9962 75.7212 14.4259 75.7212 14.4259C69.186 16.0488 61.8925 9.08833 61.8925 9.08833C59.2207 -4.58009 46.8724 1.22629 46.8724 1.22629C54.5991 -0.108098 52.541 8.07853 52.541 8.07853C42.8646 11.5046 43.7672 16.9864 43.7672 16.9864C46.9085 12.6948 49.5803 12.3702 49.5803 12.3702C40.7343 24.8124 49.2554 42.1233 51.7828 46.6314C47.1612 49.8411 36.3294 56.9098 31.455 54.4574C25.2087 51.3198 28.7832 44.9364 28.7832 44.9364C28.6387 32.0253 24.0171 32.7466 24.0171 32.7466C26.689 36.1727 24.0171 46.2708 24.0171 46.2708C24.0171 37.5071 20.4426 33.7925 20.4426 33.7925C22.0674 40.3201 15.0989 47.6051 15.0989 47.6051C1.41467 50.2739 7.22777 62.6079 7.22777 62.6079C5.89184 54.8901 14.0879 56.9458 14.0879 56.9458C17.518 66.6111 23.0062 65.7095 23.0062 65.7095C18.7095 62.5719 18.3846 59.9031 18.3846 59.9031C30.4802 68.4864 47.1973 60.6965 52.2522 57.9556C55.6462 62.8243 61.9648 72.8502 59.6179 77.5025C56.4766 83.7417 50.0858 80.1713 50.0858 80.1713C37.1598 80.3156 37.8819 84.9318 37.8819 84.9318C41.312 82.263 51.4217 84.9318 51.4217 84.9318C42.6479 84.9318 38.929 88.5022 38.929 88.5022C45.4642 86.8793 52.7577 93.8397 52.7577 93.8397C55.4295 107.508 67.7779 101.702 67.7779 101.702C60.0511 103.036 62.1092 94.8495 62.1092 94.8495C71.7856 91.4234 70.883 85.9416 70.883 85.9416C67.7417 90.2333 65.0699 90.5579 65.0699 90.5579C73.7354 78.4042 65.7559 61.5621 63.0479 56.6212C67.9584 53.1951 77.8876 47.0642 82.4731 49.3723C88.7194 52.5099 85.1449 58.8933 85.1449 58.8933C85.2894 71.8044 89.9109 71.0831 89.9109 71.0831C87.2391 67.657 89.9109 57.5589 89.9109 57.5589C89.9109 66.3226 93.4855 70.0372 93.4855 70.0372C91.8607 63.5095 98.8292 56.2245 98.8292 56.2245C112.586 53.5918 106.773 41.2578 106.773 41.2578Z" fill="url(#paint0_linear_176_38)"/>
</g>
<g clip-path="url(#clip1_176_38)">
<path d="M123 29H125.321V56.4049H132.251V29H134.572V75H132.251V58.7131H125.321V75H123V29Z" fill="url(#paint1_linear_176_38)"/>
<path d="M151.733 29L145.98 58.7131V75H143.659V58.7131L137.873 29H139.998L144.836 53.7717L149.641 29H151.733Z" fill="url(#paint2_linear_176_38)"/>
<path d="M161.997 75H155.034V29H161.964C164.547 29 166.573 31.0481 166.573 33.5837V70.3837C166.606 72.8869 164.547 75 161.997 75ZM157.355 31.3081V72.6919H161.964C163.206 72.6919 164.285 71.6516 164.285 70.3837V33.5837C164.285 32.3484 163.239 31.2756 161.964 31.2756H157.355V31.3081Z" fill="url(#paint3_linear_176_38)"/>
<path d="M181.806 75H179.42L175.334 58.7131H172.555V75H170.234V29H177.164C179.747 29 181.773 31.0481 181.773 33.5837V54.0968C181.773 56.4049 179.975 58.3555 177.687 58.6155L181.806 75ZM172.555 56.4049H177.164C178.406 56.4049 179.485 55.3647 179.485 54.0968V33.5837C179.485 32.3484 178.439 31.2756 177.164 31.2756H172.555V56.4049Z" fill="url(#paint4_linear_176_38)"/>
<path d="M188.801 58.7131L187.199 75H185.107L189.749 29H194.358L198.967 75H196.875L195.273 58.7131H188.801ZM192.495 31.3081H191.58L189.063 56.4049H195.012L192.495 31.3081Z" fill="url(#paint5_linear_176_38)"/>
</g>
<defs>
<filter id="filter0_d_176_38" x="0" y="0" width="114" height="119" filterUnits="userSpaceOnUse" color-interpolation-filters="sRGB">
<feFlood flood-opacity="0" result="BackgroundImageFix"/>
<feColorMatrix in="SourceAlpha" type="matrix" values="0 0 0 0 0 0 0 0 0 0 0 0 0 0 0 0 0 0 127 0" result="hardAlpha"/>
<feOffset dy="10"/>
<feGaussianBlur stdDeviation="3"/>
<feComposite in2="hardAlpha" operator="out"/>
<feColorMatrix type="matrix" values="0 0 0 0 0 0 0 0 0 0 0 0 0 0 0 0 0 0 0.25 0"/>
<feBlend mode="normal" in2="BackgroundImageFix" result="effect1_dropShadow_176_38"/>
<feBlend mode="normal" in="SourceGraphic" in2="effect1_dropShadow_176_38" result="shape"/>
</filter>
<linearGradient id="paint0_linear_176_38" x1="56.9967" y1="0.00115967" x2="56.9967" y2="102.927" gradientUnits="userSpaceOnUse">
<stop stop-color="#C0B7E8"/>
<stop offset="1" stop-color="#8176AF"/>
</linearGradient>
<linearGradient id="paint1_linear_176_38" x1="128.786" y1="29" x2="128.786" y2="75" gradientUnits="userSpaceOnUse">
<stop stop-color="#C0B7E8"/>
<stop offset="1" stop-color="#8176AF"/>
</linearGradient>
<linearGradient id="paint2_linear_176_38" x1="144.803" y1="29" x2="144.803" y2="75" gradientUnits="userSpaceOnUse">
<stop stop-color="#C0B7E8"/>
<stop offset="1" stop-color="#8176AF"/>
</linearGradient>
<linearGradient id="paint3_linear_176_38" x1="160.804" y1="29" x2="160.804" y2="75" gradientUnits="userSpaceOnUse">
<stop stop-color="#C0B7E8"/>
<stop offset="1" stop-color="#8176AF"/>
</linearGradient>
<linearGradient id="paint4_linear_176_38" x1="176.02" y1="29" x2="176.02" y2="75" gradientUnits="userSpaceOnUse">
<stop stop-color="#C0B7E8"/>
<stop offset="1" stop-color="#8176AF"/>
</linearGradient>
<linearGradient id="paint5_linear_176_38" x1="192.037" y1="29" x2="192.037" y2="75" gradientUnits="userSpaceOnUse">
<stop stop-color="#C0B7E8"/>
<stop offset="1" stop-color="#8176AF"/>
</linearGradient>
<clipPath id="clip0_176_38">
<rect width="102" height="103" fill="white" transform="translate(6)"/>
</clipPath>
<clipPath id="clip1_176_38">
<rect width="76" height="46" fill="white" transform="translate(123 29)"/>
</clipPath>
</defs>
</svg>
